<svg xmlns="http://www.w3.org/2000/svg" width="192" height="192">
  <path d="m31.756 15.74 3.56-.022 3.894.007 4.11-.015c3.72-.014 7.439-.014 11.158-.012q4.66 0 9.319-.008 10.995-.016 21.99-.006c7.557.006 15.114-.006 22.671-.027q9.738-.027 19.476-.02c3.875.001 7.75-.001 11.626-.015q5.47-.018 10.938.002a765 765 0 0 0 5.915-.02l3.577.022h3.096c5.044.648 8.185 2.612 11.664 6.249 3.346 4.648 4.499 8.162 4.51 13.873l.022 3.48-.007 3.789.015 4.012c.014 3.627.014 7.253.012 10.879q0 4.547.008 9.095.016 10.734.006 21.467c-.006 7.37.006 14.74.027 22.111q.026 9.506.02 19.012c-.001 3.78.001 7.561.015 11.342q.018 5.337-.002 10.675c-.004 1.918.008 3.837.02 5.756-.084 13.809-.084 13.809-4.706 19.148-4.872 4.415-10.102 5.733-16.528 5.747l-3.461.021-3.755-.007-3.989.015c-3.599.014-7.198.014-10.797.012q-4.515 0-9.028.008-10.653.016-21.306.006c-7.316-.006-14.632.006-21.949.027q-9.436.027-18.874.02c-3.753-.001-7.506.001-11.26.015-4.186.015-8.373.006-12.56-.006l-3.748.023c-7.876-.048-13.184-.505-19.248-5.895-4.599-5.256-5.307-9.311-5.327-16.128l-.018-3.398-.003-3.7-.015-3.919q-.019-5.312-.024-10.624-.005-3.324-.012-6.647-.02-10.413-.027-20.825-.007-11.995-.05-23.989-.033-9.288-.034-18.576 0-5.54-.025-11.079c-.02-4.124-.015-8.248-.008-12.372l-.028-3.675c.072-14.778.072-14.778 4.765-20.149 4.632-4.037 8.29-5.667 14.375-5.68" fill="#A6093A"/>
  <path d="m52.46 101.864 2.817.007 2.952-.006q4.854-.004 9.708.002 3.358 0 6.715-.003 7.047-.001 14.093.006 9.055.006 18.11-.004 6.935-.004 13.87 0l6.68-.002q4.659-.003 9.318.007l2.818-.007c6.345.022 6.345.022 7.459 1.136.04 1.666.043 3.334 0 5-2.286 1.143-3.543 1.121-6.083 1.114h-2.547l-2.753-.016-2.816-.005c-2.975-.005-5.95-.018-8.926-.03q-3.022-.009-6.043-.014-7.416-.017-14.832-.049l.49 2.293c1.464 7.765 1.335 16.292-1.49 23.707l1-1q2.971-2.972 5.945-5.941a616 616 0 0 0 4.68-4.747c10.417-10.142 10.417-10.142 16.648-10.41 3.468.23 5.95.533 8.79 2.598 1.782 4.754 1.887 9.175-.047 13.91A63.2 63.2 0 0 1 131 141c5.69-.538 11.349-1.14 17-2-.063 2.312-.063 2.312-1 5-5.49 3.05-9.939 3.361-16.125 3.125-6.991-.238-6.991-.238-13.875.875l-1-5 1.977-1.031c7.576-4.202 12.502-8.991 16.023-16.969.168-2.667.168-2.667 0-5-5.208-.801-8.184.782-12.305 3.687-4.207 3.61-7.89 7.692-11.558 11.843-4.427 4.957-8.841 9.6-15.45 11.345C92 147 92 147 90 146v-2l-3.625 1.5c-3.628 1.337-6.477 2.106-10.375 1.5-4.548-2.644-6.65-6.02-8-11a204 204 0 0 1-1.375-9.914c-.66-3.26-1.76-5.359-3.625-8.086-3.34-.301-3.34-.301-7 1-6.823 7.34-5.888 18.648-6 28l-5-1c-2.15-8.33-1.19-16.08 2-24 2-3.313 2-3.313 4-6l1.562-2.813C54 111 54 111 57 110l-11-1a129 129 0 0 1-1-6c1.94-1.94 4.876-1.127 7.46-1.136" fill="#A41442"/>
  <path d="M97.625 44.703c2.863 1.563 5.354 3.367 7.938 5.36l3.144 2.406 1.627 1.254c2.788 2.137 5.603 4.236 8.416 6.34L124 64l1-19 4-1 1 1c0 1.666-.059 3.332-.14 4.996-.888 12.183-.888 12.183 3.956 22.715C136.96 75.299 140.384 77.15 144 79c1.355.97 2.7 1.957 4 3l-1 4c-3.646-.546-5.967-1.383-8.906-3.598l-2.225-1.657-2.369-1.808-2.48-1.86A1591 1591 0 0 1 123 71c-.949-.72-1.897-1.44-2.875-2.18a4128 4128 0 0 1-16.045-12.233L102 55l-2.12-1.71c-1.83-1.524-1.83-1.524-4.278-1.24-3.304 1.206-5.49 2.924-8.227 5.138q-1.718 1.366-3.441 2.726l-1.892 1.497c-4.611 3.588-9.351 7.007-14.07 10.451-3.605 2.637-7.189 5.28-10.679 8.068l-1.648 1.3a434 434 0 0 0-4.2 3.391C49 86 49 86 46.18 85.723L44 85c.38-2.462.716-3.724 2.524-5.485l1.992-1.406 2.262-1.626 2.472-1.733q2.6-1.866 5.2-3.738l2.75-1.975c5.553-4.04 10.977-8.251 16.416-12.442a669 669 0 0 1 4.916-3.735 307 307 0 0 0 5.135-3.958l2.642-2 2.365-1.832C95 44 95 44 97.625 44.703" fill="#FCECF2"/>
  <path d="M99 111c2 .313 2 .313 4 1 2.719 5.437 1.672 14.624 0 20.375L102 135l1-1q2.971-2.972 5.945-5.941a616 616 0 0 0 4.68-4.746c10.417-10.143 10.417-10.143 16.648-10.41 3.468.23 5.95.532 8.79 2.597 1.782 4.754 1.887 9.175-.047 13.91A63.2 63.2 0 0 1 131 141c5.69-.538 11.349-1.14 17-2-.062 2.313-.062 2.313-1 5-5.49 3.05-9.939 3.361-16.125 3.125-6.991-.238-6.991-.238-13.875.875l-1-5 1.977-1.031c7.576-4.202 12.502-8.991 16.023-16.969.168-2.667.168-2.667 0-5-5.208-.801-8.184.782-12.305 3.688-4.207 3.61-7.89 7.69-11.558 11.842-5.119 5.732-10.069 10.88-18.137 11.47-.687-2.312-.687-2.312-1-5q1.484-1.516 3-3c3.253-6.7 3.443-14.072 3.71-21.374.203-5.54.203-5.54 1.29-6.626" fill="#FCECF3"/>
  <path d="M65 112c7.174 5.899 7.439 11.58 8.34 20.469.648 3.47 1.186 5.075 3.66 7.531 2.412.834 2.412.834 5 0 4.353-4.05 6.358-8.043 7-14 .146-4.672.118-9.327 0-14l4-1c3.511 5.267 2.5 11.874 2 18-1.682 6.981-4.99 13.154-10.937 17.375-2.898.878-5.047.994-8.063.625-4.548-2.644-6.65-6.02-8-11a204 204 0 0 1-1.375-9.914c-.66-3.26-1.76-5.359-3.625-8.086-3.34-.301-3.34-.301-7 1-6.823 7.34-5.888 18.648-6 28l-5-1c-2.476-9.596-.971-18.825 3.938-27.375 4.921-6.264 7.91-8.593 16.062-6.625" fill="#FCE9F1"/>
  <path d="M101 61c4.433 2.137 7.125 4.417 9 9 .536 5.626.19 9.161-3 14-3.477 3.784-6.732 4.81-11.719 5.168-4.737-.349-7.986-2.744-11.156-6.23C81.738 78.826 81.358 74.646 82 70c4.556-8.625 9.669-10.217 19-9" fill="#FAE7EE"/>
  <path d="m52.47 101.876 2.823.01h2.956c3.241 0 6.483.009 9.724.016l6.721.005q8.865.006 17.73.024 9.04.014 18.078.02 17.749.016 35.498.049c.562 1.938.562 1.938 1 4-1.943 1.943-4.885 1.12-7.47 1.124l-2.823-.01h-2.956c-3.241 0-6.483-.009-9.724-.016l-6.721-.005q-8.865-.006-17.73-.024-9.04-.014-18.078-.02Q63.749 107.033 46 107c-.563-1.937-.563-1.937-1-4 1.943-1.943 4.885-1.12 7.47-1.124" fill="#FEFAFC"/>
  <path d="M99 52c2.312 1.399 2.312 1.399 4.645 3.16l2.548 1.904 2.62 1.999 2.677 2.01Q114.754 63.524 118 66l-1.875.875c-2.258 1.062-2.258 1.062-4.125 3.125a84 84 0 0 0-1 5.875c-.521 3.788-1.073 6.8-3 10.125h-2l-.621 2.152-.817 2.785-.808 2.778C103 96 103 96 102 97l1 2c-3.686.948-6.323 1.021-10 0l-1-1c.09-1.525.245-3.047.438-4.562l.308-2.504L93 89l1.793-.297c5.021-.95 8.582-1.858 12.207-5.703 2.356-4.04 2.735-8.42 2-13-2.1-4.048-3.763-6.344-8-8-5.159-.661-9.564-.88-14.062 1.875L85 66l-2 2v-5l-3-1a576 576 0 0 1 6.688-5.562l1.896-1.616 1.865-1.513 1.698-1.413c2.666-1.29 4.073-.807 6.853.104" fill="#A21341"/>
  <path d="M99 66c2.875 1.438 2.875 1.438 5 4 .907 4.299.73 7.754-1.5 11.563-3.55 2.04-6.503 2.215-10.5 1.437-2.5-1.437-2.5-1.437-4-4-.603-3.13-.66-5.876 0-9 3.229-3.894 6.036-4.827 11-4" fill="#A31140"/>
  <path d="M110 70h1c.38 6.199-.165 10.448-3 16h-2l-.621 2.152-.817 2.785-.808 2.778C103 96 103 96 102 97l1 2c-3.686.948-6.323 1.021-10 0l-1-1c.09-1.525.245-3.047.438-4.562l.308-2.504L93 89l1.793-.297c5.021-.95 8.582-1.858 12.207-5.703 2.277-4.099 2.532-8.402 3-13" fill="#9F1D46"/>
  <path d="M46 102h2l-1 4h98v-3h-26v-1h27l1 4c-1.943 1.943-4.885 1.12-7.47 1.124l-2.823-.01h-2.956c-3.241 0-6.483-.009-9.724-.016l-6.721-.005q-8.865-.006-17.73-.024-9.04-.014-18.078-.02Q63.749 107.033 46 107c-.562-1.937-.562-1.937-1-4z" fill="#FFEBFA"/>
  <path d="m46 107 57 1-1 3c-2.062.688-2.062.688-4 1v-3l-33 1v3l-3.25-.562c-3.154-.368-4.848-.483-7.75.562v-2l3-1-11-1z" fill="#97133D"/>
  <path d="M90 61c10.101-.627 10.101-.627 13.688 1.875C105 65 105 65 105 67l-2.52-.035-3.293-.028-3.269-.035C92.935 66.864 92.935 66.864 90 68c-1.125-4.75-1.125-4.75 0-7" fill="#FEEFF5"/>
  <path d="M95 118h1c2.056 7.78 2.279 13.553-1 21l-2 3h-2l-1 4v-2l-3-1 1.813-1.937c4.985-6.98 5.732-14.674 6.187-23.063" fill="#9F294E"/>
  <path d="M99 111c2 .313 2 .313 4 1 1.502 3.003 1.093 5.79 1.063 9.125l-.028 3.883L104 128h-1l-1-9h-2l-.148 2.809-.227 3.629-.21 3.62L99 132l-2 1c.138-3.48.287-6.959.438-10.437l.119-3.01.127-2.862.11-2.65C98 112 98 112 99 111" fill="#F4D1DE"/>
  <path d="M96.844 51.063c2.29.996 3.573 2.02 5.156 3.937l-2 1v-2c-2.92-.348-5.132-.533-7.7 1.043-2.183 1.803-4.022 3.401-5.3 5.957h2v2a159 159 0 0 1-6 5v-5l-3-1a576 576 0 0 1 6.688-5.562l1.896-1.616c4.729-3.837 4.729-3.837 8.26-3.76" fill="#9D1C45"/>
  <path d="M99 91c1 1 1 1 1.188 3.938C100 98 100 98 98 100c-4.556-.556-4.556-.556-6-2-.04-2-.043-4 0-6 2.484-1.242 4.252-1.14 7-1" fill="#F9E3EC"/>
  <path d="m63 117 2 3-2.687-.312c-3.435.027-3.435.027-6 2.374-2.577 3.274-3.867 6.056-5.313 9.938-1-3-1-3-.11-5.41.45-.875.898-1.75 1.36-2.653l1.328-2.66c2.461-3.942 4.956-4.85 9.422-4.277" fill="#9E234A"/>
  <path d="M104 112h1l.148 3.43.227 4.445c.03.746.062 1.493.094 2.262.087 4.398.087 4.398 2.531 7.863l-5 6-2-1 .96-2.973c1.186-4.146 1.477-8.172 1.665-12.464l.117-2.217q.138-2.673.258-5.346" fill="#951B42"/>
  <path d="M138.188 134.313 140 135l-4 4h6l-1 2h-10c3.6-7.2 3.6-7.2 7.188-6.687" fill="#94113A"/>
  <path d="M44 132h1l.367 2.59.508 3.347.492 3.34L47 144l2 1v-11h1v13l-5-1c-1.206-4.672-1.094-9.215-1-14" fill="#ECB8CB"/>
  <path d="M94 135c.625 1.813.625 1.813 1 4l-2 3h-2l-1 4v-2l-3-1a159 159 0 0 1 5-6h2z" fill="#9E1E47"/>
  <path d="M134 125h1c.38 3.342.235 4.67-1.75 7.457l-2.25 2.356-2.25 2.394L127 139l-3-1 2.188-2c2.846-2.814 4.786-5.984 6.796-9.426z" fill="#F6D6E4"/>
  <path d="M119 121c.25 2.313.25 2.313 0 5-2 1.813-2 1.813-4 3-1.125-4.75-1.125-4.75 0-7 3-1 3-1 4-1" fill="#FDF6F9"/>
  <path d="M96.625 51.063c2.464.972 3.702 1.912 5.375 3.937l-2 1v-2c-2.917-.167-2.917-.167-6 0l-2 2-3-1c4.261-4.018 4.261-4.018 7.625-3.937" fill="#A32E54"/>
  <path d="M143 139h5l-1 5-3 1z" fill="#FCDDE9"/>
  <path d="M134 114c1.938.375 1.938.375 4 1l1 2c-4.43 2.092-4.43 2.092-7.312 1.625L130 118h2z" fill="#F8DBE5"/>
  <path d="m104 63 5 5c-2.49.687-4.379 1-7 1v-3l3 1z" fill="#FAD8E5"/>
  <path d="m125 133 4 1-5 5-1-3z" fill="#9F123F"/>
  <path d="M57 79c0 3 0 3-1.75 5.25L53 86l-4-1z" fill="#A2244C"/>
  <path d="M65 73c0 3 0 3-2 5.188L61 80l-3-2z" fill="#A6234D"/>
  <path d="M144 140v5c-2.962-.613-4.38-1.254-7-3 5.875-2 5.875-2 7-2" fill="#FEFBFE"/>
  <path d="M111 134h1v5l-6 1a318 318 0 0 1 5-6" fill="#9E1641"/>
  <path d="M67 133c2 3 2 3 2 7l-5-2 1-2h2z" fill="#A1214A"/>
  <path d="M85 81h2v2l2.375-.625L92 82l2 2c-2.812.688-2.812.688-6 1-1.875-1.375-1.875-1.375-3-3z" fill="#FDF7FA"/>
  <path d="M73 67v3c-2.5 2.188-2.5 2.188-5 4l-2-2z" fill="#9E284D"/>
  <path d="m97 46-1 4-4 1c.375-1.937.375-1.937 1-4 2-1 2-1 4-1" fill="#FEFCFD"/>
  <path d="m23 21 4 1-2.375 1.813C21.855 25.91 21.855 25.91 20 29c.547-3.375 1.055-5.082 3-8" fill="#B1466A"/>
</svg>
