<?xml version="1.0" encoding="UTF-8"?>
<svg xmlns="http://www.w3.org/2000/svg" xmlns:xlink="http://www.w3.org/1999/xlink" width="300px" height="300px" viewBox="0 0 300 300" version="1.1">
<defs>
<filter id="alpha" filterUnits="objectBoundingBox" x="0%" y="0%" width="100%" height="100%">
  <feColorMatrix type="matrix" in="SourceGraphic" values="0 0 0 0 1 0 0 0 0 1 0 0 0 0 1 0 0 0 1 0"/>
</filter>
<mask id="mask0">
  <g filter="url(#alpha)">
<rect x="0" y="0" width="300" height="300" style="fill:rgb(0%,0%,0%);fill-opacity:0.0117647;stroke:none;"/>
  </g>
</mask>
<clipPath id="clip1">
  <rect x="0" y="0" width="300" height="300"/>
</clipPath>
<g id="surface5" clip-path="url(#clip1)">
<path style=" stroke:none;fill-rule:evenodd;fill:rgb(0.784314%,6.27451%,27.450982%);fill-opacity:1;" d="M 248.863281 3.410156 L 248.863281 5.683594 L 37.5 5.683594 C 40.796875 3.859375 44.585938 2.722656 48.863281 2.273438 C 115.914062 0.386719 182.582031 0.765625 248.863281 3.410156 "/>
</g>
<mask id="mask1">
  <g filter="url(#alpha)">
<rect x="0" y="0" width="300" height="300" style="fill:rgb(0%,0%,0%);fill-opacity:0.00392157;stroke:none;"/>
  </g>
</mask>
<clipPath id="clip2">
  <rect x="0" y="0" width="300" height="300"/>
</clipPath>
<g id="surface8" clip-path="url(#clip2)">
<path style=" stroke:none;fill-rule:evenodd;fill:rgb(0%,12.156863%,34.901962%);fill-opacity:1;" d="M 14.773438 21.589844 C 14.9375 25.0625 13.425781 27.332031 10.226562 28.410156 C 10.0625 24.9375 11.574219 22.667969 14.773438 21.589844 "/>
</g>
<mask id="mask2">
  <g filter="url(#alpha)">
<rect x="0" y="0" width="300" height="300" style="fill:rgb(0%,0%,0%);fill-opacity:0.0352941;stroke:none;"/>
  </g>
</mask>
<clipPath id="clip3">
  <rect x="0" y="0" width="300" height="300"/>
</clipPath>
<g id="surface11" clip-path="url(#clip3)">
<path style=" stroke:none;fill-rule:evenodd;fill:rgb(0.392157%,1.176471%,12.941177%);fill-opacity:1;" d="M 10.226562 28.410156 L 10.226562 35.226562 C 7.582031 106.410156 7.203125 177.65625 9.089844 248.863281 C 11.609375 253.121094 13.523438 257.710938 14.773438 262.5 C 12.019531 260.839844 9.746094 258.566406 7.953125 255.683594 C 5.683594 182.96875 4.925781 110.242188 5.683594 37.5 C 6.046875 33.742188 7.5625 30.710938 10.226562 28.410156 "/>
</g>
</defs>
<g id="surface1">
<use xlink:href="#surface5" mask="url(#mask0)"/>
<path style=" stroke:none;fill-rule:evenodd;fill:rgb(19.607843%,59.215689%,98.823529%);fill-opacity:1;" d="M 37.5 5.683594 L 248.863281 5.683594 C 262.222656 9.957031 272.074219 18.289062 278.410156 30.683594 C 281.027344 102.621094 281.40625 174.625 279.546875 246.589844 C 276.757812 255.027344 272.589844 262.601562 267.046875 269.316406 C 264.605469 269.421875 262.242188 270.207031 260.226562 271.589844 C 253.9375 271.960938 247.769531 273.503906 242.046875 276.136719 C 170.816406 274.605469 99.605469 273.089844 28.410156 271.589844 L 26.136719 271.589844 C 19.960938 264.027344 15.414062 255.695312 12.5 246.589844 C 10.226562 176.152344 9.46875 105.695312 10.226562 35.226562 L 10.226562 28.410156 C 13.425781 27.332031 14.9375 25.0625 14.773438 21.589844 C 20.050781 12.898438 27.628906 7.597656 37.5 5.683594 "/>
<use xlink:href="#surface8" mask="url(#mask1)"/>
<path style=" stroke:none;fill-rule:evenodd;fill:rgb(27.843139%,60.000002%,91.764706%);fill-opacity:1;" d="M 207.953125 55.683594 C 183.976562 37.078125 156.703125 29.5 126.136719 32.953125 C 130.988281 29.46875 136.671875 27.953125 143.183594 28.410156 C 164.765625 29.59375 184.839844 35.65625 203.410156 46.589844 C 206.148438 49.039062 207.664062 52.066406 207.953125 55.683594 "/>
<path style=" stroke:none;fill-rule:evenodd;fill:rgb(93.333334%,98.431373%,99.607843%);fill-opacity:1;" d="M 126.136719 32.953125 C 156.703125 29.5 183.976562 37.078125 207.953125 55.683594 C 234.777344 82.277344 243.867188 113.335938 235.226562 148.863281 C 232.292969 149.402344 230.019531 148.644531 228.410156 146.589844 C 228.957031 132.867188 227.8125 119.125 225 105.683594 C 223.492188 97.648438 220.085938 90.832031 214.773438 85.226562 C 205.28125 64.925781 189.371094 52.804688 167.046875 48.863281 C 161.578125 45.980469 155.519531 44.464844 148.863281 44.316406 L 148.863281 92.046875 L 139.773438 92.046875 C 140.507812 76.46875 139.75 61.316406 137.5 46.589844 C 123.601562 45.511719 110.722656 49.300781 98.863281 57.953125 C 94.535156 58.496094 91.507812 60.769531 89.773438 64.773438 C 64.222656 86.859375 54.375 114.886719 60.226562 148.863281 C 56.164062 149.511719 52.375 148.753906 48.863281 146.589844 C 46.78125 139.207031 46.011719 131.515625 46.589844 123.863281 C 52.300781 74.992188 78.816406 44.6875 126.136719 32.953125 "/>
<path style=" stroke:none;fill-rule:evenodd;fill:rgb(19.215687%,59.607846%,99.607843%);fill-opacity:1;" d="M 167.046875 48.863281 C 189.371094 52.804688 205.28125 64.925781 214.773438 85.226562 C 221.210938 105.214844 225.777344 125.757812 228.410156 146.589844 C 230.019531 148.644531 232.292969 149.402344 235.226562 148.863281 C 237.15625 152.484375 240.183594 155.136719 244.316406 156.816406 C 237.777344 158.992188 232.09375 157.855469 227.273438 153.410156 C 223.140625 168.265625 220.476562 183.488281 219.316406 198.863281 C 211.261719 198.027344 204.445312 200.300781 198.863281 205.683594 C 167.035156 206.0625 135.21875 205.683594 103.410156 204.546875 C 98.605469 200.964844 93.675781 197.554688 88.636719 194.316406 C 87.515625 196.703125 87.894531 198.976562 89.773438 201.136719 C 88.734375 202.945312 87.21875 203.703125 85.226562 203.410156 C 81.757812 203.574219 79.484375 202.0625 78.410156 198.863281 C 78.214844 196.597656 78.972656 194.703125 80.683594 193.183594 C 78.289062 190.636719 75.640625 189.5 72.726562 189.773438 C 72.113281 179.449219 67.945312 171.117188 60.226562 164.773438 L 60.226562 160.226562 C 61.972656 142.824219 63.488281 125.398438 64.773438 107.953125 C 72.210938 108.019531 73.726562 104.992188 69.316406 98.863281 C 70.222656 95.011719 71.363281 91.214844 72.726562 87.5 C 83.160156 83.503906 88.839844 75.925781 89.773438 64.773438 C 91.507812 60.769531 94.535156 58.496094 98.863281 57.953125 C 109.726562 53.664062 121.273438 51.351562 132.953125 51.136719 C 132.242188 67.625 133 83.914062 135.226562 100 C 132.023438 100.835938 129.75 102.730469 128.410156 105.683594 C 131.4375 108.710938 134.46875 108.710938 137.5 105.683594 C 141.722656 102.355469 145.535156 98.539062 148.863281 94.316406 L 148.863281 92.046875 C 150.742188 79.578125 151.878906 66.699219 152.273438 53.410156 C 156.257812 49.433594 161.183594 47.917969 167.046875 48.863281 "/>
<path style=" stroke:none;fill-rule:evenodd;fill:rgb(48.235294%,71.372551%,94.901961%);fill-opacity:1;" d="M 167.046875 48.863281 C 161.183594 47.917969 156.257812 49.433594 152.273438 53.410156 C 151.878906 66.699219 150.742188 79.578125 148.863281 92.046875 L 148.863281 44.316406 C 155.519531 44.464844 161.578125 45.980469 167.046875 48.863281 "/>
<use xlink:href="#surface11" mask="url(#mask2)"/>
<path style=" stroke:none;fill-rule:evenodd;fill:rgb(72.549021%,92.54902%,99.607843%);fill-opacity:1;" d="M 137.5 46.589844 C 139.75 61.316406 140.507812 76.46875 139.773438 92.046875 L 148.863281 92.046875 L 148.863281 94.316406 L 137.5 94.316406 Z M 137.5 46.589844 "/>
<path style=" stroke:none;fill-rule:evenodd;fill:rgb(24.313726%,59.215689%,93.333334%);fill-opacity:1;" d="M 137.5 46.589844 L 137.5 94.316406 L 148.863281 94.316406 C 145.535156 98.539062 141.722656 102.355469 137.5 105.683594 C 134.46875 108.710938 131.4375 108.710938 128.410156 105.683594 C 129.75 102.730469 132.023438 100.835938 135.226562 100 C 132.996094 83.8125 132.234375 67.460938 132.953125 51.136719 C 121.273438 51.351562 109.726562 53.664062 98.863281 57.953125 C 110.722656 49.300781 123.601562 45.511719 137.5 46.589844 "/>
<path style=" stroke:none;fill-rule:evenodd;fill:rgb(36.862746%,63.921571%,92.156863%);fill-opacity:1;" d="M 214.773438 85.226562 C 220.085938 90.832031 223.492188 97.648438 225 105.683594 C 227.8125 119.125 228.957031 132.867188 228.410156 146.589844 C 225.777344 125.757812 221.210938 105.214844 214.773438 85.226562 "/>
<path style=" stroke:none;fill-rule:evenodd;fill:rgb(25.882354%,60.392159%,92.941177%);fill-opacity:1;" d="M 89.773438 64.773438 C 88.839844 75.929688 83.160156 83.503906 72.726562 87.5 C 71.363281 91.214844 70.222656 95.011719 69.316406 98.863281 C 73.726562 104.992188 72.210938 108.019531 64.773438 107.953125 C 63.488281 125.398438 61.972656 142.824219 60.226562 160.226562 L 48.863281 160.226562 C 49.328125 167.085938 50.085938 173.90625 51.136719 180.683594 C 49.734375 180.433594 48.597656 179.675781 47.726562 178.410156 C 44.523438 161.171875 43 143.667969 43.183594 126.136719 C 44.054688 124.871094 45.1875 124.113281 46.589844 123.863281 C 46.011719 131.515625 46.78125 139.207031 48.863281 146.589844 C 52.375 148.753906 56.164062 149.511719 60.226562 148.863281 C 54.375 114.886719 64.222656 86.859375 89.773438 64.773438 "/>
<path style=" stroke:none;fill-rule:evenodd;fill:rgb(25.098041%,56.862748%,89.411765%);fill-opacity:1;" d="M 10.226562 35.226562 C 9.46875 105.695312 10.226562 176.152344 12.5 246.589844 C 15.414062 255.695312 19.960938 264.027344 26.136719 271.589844 L 14.773438 262.5 C 13.523438 257.710938 11.609375 253.121094 9.089844 248.863281 C 7.203125 177.265625 7.582031 106.054688 10.226562 35.226562 "/>
<path style=" stroke:none;fill-rule:evenodd;fill:rgb(57.647061%,76.47059%,94.509804%);fill-opacity:1;" d="M 237.5 162.5 L 228.410156 162.5 C 229.164062 182.226562 228.402344 201.980469 226.136719 221.589844 C 223.8125 220.78125 222.296875 219.265625 221.589844 217.046875 C 226.0625 199.015625 227.578125 180.074219 226.136719 160.226562 C 230.488281 159.582031 234.277344 160.339844 237.5 162.5 "/>
<path style=" stroke:none;fill-rule:evenodd;fill:rgb(90.196079%,96.862745%,99.607843%);fill-opacity:1;" d="M 60.226562 160.226562 L 60.226562 164.773438 C 62.167969 178.515625 68.230469 189.878906 78.410156 198.863281 C 79.484375 202.0625 81.757812 203.574219 85.226562 203.410156 C 87.726562 205.816406 90.757812 207.710938 94.316406 209.089844 C 132.1875 210.226562 170.066406 210.605469 207.953125 210.226562 C 211.4375 214.195312 215.984375 216.464844 221.589844 217.046875 C 222.296875 219.265625 223.8125 220.78125 226.136719 221.589844 C 228.402344 201.980469 229.164062 182.226562 228.410156 162.5 L 237.5 162.5 C 239.769531 191.988281 240.53125 221.570312 239.773438 251.136719 L 226.136719 251.136719 C 226.769531 237.757812 220.710938 229.046875 207.953125 225 L 103.410156 222.726562 C 78.101562 218.226562 60.675781 204.210938 51.136719 180.683594 C 50.085938 173.898438 49.328125 167.074219 48.863281 160.226562 Z M 60.226562 160.226562 "/>
<path style=" stroke:none;fill-rule:evenodd;fill:rgb(23.137255%,59.215689%,93.333334%);fill-opacity:1;" d="M 198.863281 205.683594 C 203.371094 204.902344 206.402344 206.417969 207.953125 210.226562 C 170.066406 210.605469 132.1875 210.226562 94.316406 209.089844 C 90.757812 207.710938 87.726562 205.816406 85.226562 203.410156 C 87.21875 203.703125 88.734375 202.945312 89.773438 201.136719 C 87.894531 198.976562 87.515625 196.703125 88.636719 194.316406 C 93.675781 197.554688 98.605469 200.964844 103.410156 204.546875 C 135.21875 205.683594 167.035156 206.0625 198.863281 205.683594 "/>
<path style=" stroke:none;fill-rule:evenodd;fill:rgb(30.19608%,61.56863%,93.333334%);fill-opacity:1;" d="M 60.226562 164.773438 C 67.945312 171.117188 72.113281 179.449219 72.726562 189.773438 C 75.640625 189.5 78.289062 190.636719 80.683594 193.183594 C 78.972656 194.703125 78.214844 196.597656 78.410156 198.863281 C 68.230469 189.878906 62.167969 178.515625 60.226562 164.773438 "/>
</g>
</svg>
